<?xml version="1.0" standalone="no"?><!DOCTYPE svg PUBLIC "-//W3C//DTD SVG 1.1//EN" "http://www.w3.org/Graphics/SVG/1.1/DTD/svg11.dtd"><svg t="1663932414745" class="icon" viewBox="0 0 1024 1024" version="1.1" xmlns="http://www.w3.org/2000/svg" p-id="2591" xmlns:xlink="http://www.w3.org/1999/xlink" width="200" height="200"><path d="M170.666667 914.773333c-6.826667 0-10.24 0-13.653334-3.413333-13.653333-6.826667-20.48-20.48-20.48-30.72l3.413334-116.053333c0-17.066667 17.066667-34.133333 34.133333-34.133334 20.48 0 34.133333 17.066667 34.133333 34.133334v40.96l105.813334-85.333334L204.8 665.6c-34.133333-17.066667-44.373333-58.026667-27.306667-92.16l208.213334-392.533333c17.066667-30.72 44.373333-54.613333 81.92-68.266667 34.133333-10.24 71.68-6.826667 102.4 10.24 64.853333 34.133333 92.16 119.466667 58.026666 184.32l-160.426666 300.373333c-10.24 17.066667-30.72 23.893333-47.786667 13.653334-17.066667-10.24-23.893333-30.72-13.653333-47.786667L566.613333 273.066667c17.066667-34.133333 3.413333-75.093333-27.306666-92.16-17.066667-10.24-34.133333-10.24-51.2-3.413334-17.066667 6.826667-30.72 17.066667-40.96 34.133334L238.933333 607.573333l105.813334 54.613334c20.48 10.24 34.133333 30.72 37.546666 54.613333 3.413333 23.893333-6.826667 44.373333-23.893333 58.026667l-160.426667 129.706666c-13.653333 6.826667-20.48 10.24-27.306666 10.24z m744.106666-34.133333c0-20.48-13.653333-34.133333-34.133333-34.133333h-512c-20.48 0-34.133333 13.653333-34.133333 34.133333s13.653333 34.133333 34.133333 34.133333h512c20.48 0 34.133333-17.066667 34.133333-34.133333z" fill="#3E2AD1" p-id="2592"></path></svg>