<?xml version="1.0" standalone="no"?><!DOCTYPE svg PUBLIC "-//W3C//DTD SVG 1.1//EN" "http://www.w3.org/Graphics/SVG/1.1/DTD/svg11.dtd"><svg t="1671096523031" class="icon" viewBox="0 0 1024 1024" version="1.1" xmlns="http://www.w3.org/2000/svg" p-id="22864" xmlns:xlink="http://www.w3.org/1999/xlink" width="200" height="200"><path d="M512 224c10.144 0 19.76 4.496 26.24 12.288l40.096 48.112A128 128 0 0 1 608 366.336V448a32 32 0 0 1-32 32h-128a32 32 0 0 1-32-32v-81.664c0-29.936 10.496-58.944 29.664-81.936l40.096-48.112A34.112 34.112 0 0 1 512 224zM576 592c10.24 10.24 16 24.144 16 38.624v18.752A54.64 54.64 0 0 1 537.376 704h-50.752A54.64 54.64 0 0 1 432 649.376v-18.752c0-14.496 5.76-28.384 16-38.624h128z" fill="#FC6E51" p-id="22865"></path><path d="M432.96 620.864c15.264 12.176 33.84 19.136 53.664 19.136h50.752c19.824 0 38.4-6.96 53.664-19.136A54.656 54.656 0 0 0 576 592h-128a54.656 54.656 0 0 0-15.04 28.864z" fill="#E9573F" p-id="22866"></path><path d="M576 592c-10.24 10.24-24.144 16-38.624 16h-50.752A54.64 54.64 0 0 1 432 553.376v-18.752A54.64 54.64 0 0 1 486.624 480h50.752A54.64 54.64 0 0 1 592 534.624v18.752c0 14.48-5.76 28.384-16 38.624zM608 832a96 96 0 0 1-96-96v-32h32a64 64 0 0 1 64 64v64z" fill="#FC6E51" p-id="22867"></path><path d="M586.576 720.528A63.568 63.568 0 0 0 544 704h-32v32h25.376a85.824 85.824 0 0 0 49.2-15.472z" fill="#E9573F" p-id="22868"></path><path d="M416 832a96 96 0 0 0 96-96v-32h-32a64 64 0 0 0-64 64v64zM326.304 320h-68.032l33.072-57.872A95.952 95.952 0 0 0 304 214.512V112h-32V32h-16l-41.152 16.464A189.056 189.056 0 0 0 96 224a191.984 191.984 0 0 0 192 192h128v-48a107.808 107.808 0 0 0-89.696-48zM809.152 48.464L768 32h-16v80h-32v102.512c0 16.704 4.368 33.12 12.656 47.632L765.712 320h-68.032a107.808 107.808 0 0 0-89.696 48v48h128a192 192 0 0 0 192-192 189.008 189.008 0 0 0-118.832-175.536z" fill="#FC6E51" p-id="22869"></path><path d="M640 366.336c0-9.392-0.832-18.704-2.464-27.872A107.888 107.888 0 0 0 608 368v48h32v-49.664zM416 416v-48a107.6 107.6 0 0 0-29.536-29.52A158.736 158.736 0 0 0 384 366.336V416h32z" fill="#E9573F" p-id="22870"></path><path d="M480 896h64v96h-64z" fill="#B27946" p-id="22871"></path><path d="M800 336l-34.288-16h-68.032c-2.272 0-4.496 0.272-6.752 0.416L800 336zM224 336l109.056-15.584c-2.24-0.144-4.48-0.416-6.752-0.416h-68.032L224 336zM486.624 480c-14.48 0-28.384 5.76-38.624 16a54.272 54.272 0 0 0-10.368 14.96c3.392 0.544 6.816 1.04 10.368 1.04h128c3.552 0 6.976-0.496 10.368-1.04A54.272 54.272 0 0 0 576 496c-10.24-10.24-24.144-16-38.624-16h-50.752zM480 704a63.568 63.568 0 0 0-42.576 16.528 85.824 85.824 0 0 0 49.2 15.472H512v-32h-32z" fill="#E9573F" p-id="22872"></path><path d="M815.088 33.6L771.072 16H736v80h-32v118.512a112 112 0 0 0 14.768 55.568L738.144 304h-40.464a123.36 123.36 0 0 0-77.984 27.904 144.192 144.192 0 0 0-27.712-55.936v-80.08c0-39.504 15.376-76.64 43.312-104.576l-22.624-22.624A178.816 178.816 0 0 0 560 195.888v41.52l-9.472-11.36A49.84 49.84 0 0 0 528 210.928V16h-32v194.928a49.888 49.888 0 0 0-22.544 15.12l-9.456 11.344v-41.504c0-48.048-18.72-93.216-52.688-127.2l-22.624 22.624A146.912 146.912 0 0 1 432 195.888v80.08a144.192 144.192 0 0 0-27.712 55.936A123.36 123.36 0 0 0 326.32 304h-40.464l19.376-33.92A112 112 0 0 0 320 214.512V96h-32V16h-35.072l-44.016 17.6A204.08 204.08 0 0 0 80 224c0 65.12 31.104 127.328 83.2 166.4A209.264 209.264 0 0 0 288 432h112v16a48 48 0 0 0 30.256 44.512 69.392 69.392 0 0 0-13.6 35.488h-73.216l-36.752 55.12 26.624 17.744L360.56 560h56.08c1.072 11.488 4.624 22.448 10.896 32a69.712 69.712 0 0 0-10.896 32h-73.216l-36.752 55.12 26.624 17.744L360.56 656h56.08a69.76 69.76 0 0 0 20.048 43.312c0.368 0.368 0.816 0.624 1.184 0.976C415.216 714.432 400 739.392 400 768v80h16c31.328 0 59.648-12.96 80-33.776V880h-32v128h96v-128h-32v-65.776A111.568 111.568 0 0 0 608 848h16v-80c0-28.608-15.216-53.568-37.872-67.712 0.368-0.352 0.816-0.608 1.184-0.976A69.936 69.936 0 0 0 607.36 656h56.08l27.248 40.88 26.624-17.744L680.56 624H607.36a69.712 69.712 0 0 0-10.896-32 69.712 69.712 0 0 0 10.896-32h56.08l27.248 40.88 26.624-17.744L680.56 528H607.36a69.536 69.536 0 0 0-13.6-35.488A48.016 48.016 0 0 0 624 448v-16h112a209.28 209.28 0 0 0 124.8-41.6A208.992 208.992 0 0 0 944 224c0-84.336-50.592-159.072-128.912-190.4zM528 976h-32v-64h32v64z m-96-609.664c0-26.144 9.216-51.616 25.968-71.696l40.064-48.096a18.144 18.144 0 0 1 27.92-0.016l40.08 48.112A112.128 112.128 0 0 1 592 366.336V448c0 8.816-7.168 16-16 16h-128c-8.832 0-16-7.184-16-16v-81.664z m132.688 140.992c7.296 7.28 11.312 16.976 11.312 27.296v18.752c0 10.32-4.016 20.016-11.312 27.312S547.68 592 537.376 592h-50.752c-10.32 0-20.016-4.016-27.312-11.312S448 563.68 448 553.376v-18.752c0-10.32 4.016-20.016 11.312-27.312A38.4 38.4 0 0 1 486.624 496h50.752c10.304 0 20.016 4.016 27.312 11.328zM576 630.624v18.752c0 10.32-4.016 20.016-11.312 27.312S547.68 688 537.376 688H486.624c-10.32 0-20.016-4.016-27.312-11.312S448 659.68 448 649.376v-18.752c0-5.712 1.344-11.168 3.68-16.192 10.56 6.064 22.432 9.568 34.944 9.568h50.752c12.512 0 24.384-3.504 34.944-9.568 2.336 5.024 3.68 10.48 3.68 16.192zM288 400c-37.824 0-75.328-12.496-105.616-35.2A176.864 176.864 0 0 1 112 224c0-71.184 42.704-134.256 108.784-160.672L256 49.232v54.688a164.656 164.656 0 0 0-61.504 92.144l-2.016 8.032 31.024 7.792 2.016-8.048a132.912 132.912 0 0 1 51.472-75.856H288v86.512c0 13.904-3.648 27.632-10.544 39.68l-51.344 89.872 27.776 15.872 13.68-23.92h58.752c29.264 0 56.416 13.952 73.68 37.344V400h-112z m144 414.384V768c0-26.464 21.536-48 48-48h16v16a80.128 80.128 0 0 1-64 78.384zM544 720c26.464 0 48 21.536 48 48v46.384A80.144 80.144 0 0 1 528 736v-16h16z m297.616-355.2A177.184 177.184 0 0 1 736 400h-112v-26.656A91.472 91.472 0 0 1 697.68 336h58.752l13.68 23.936 27.776-15.872-51.344-89.872a80.064 80.064 0 0 1-10.544-39.68V128h11.008a132.88 132.88 0 0 1 51.472 75.872l2.016 8.032 31.024-7.792-2.016-8.016A164.64 164.64 0 0 0 768 103.936V49.232l35.216 14.08A172.24 172.24 0 0 1 912 224c0 55.104-26.32 107.744-70.384 140.8z" p-id="22873"></path><path d="M480 352m-16 0a16 16 0 1 0 32 0 16 16 0 1 0-32 0Z" p-id="22874"></path><path d="M544 352m-16 0a16 16 0 1 0 32 0 16 16 0 1 0-32 0Z" p-id="22875"></path></svg>